<svg width="12" height="14" viewBox="0 0 12 14" fill="none" xmlns="http://www.w3.org/2000/svg">
<path d="M10.5085 8.19615L11.3525 9.68134C11.2523 9.8774 11.1402 10.0699 11.0161 10.2581C10.8921 10.4462 10.7593 10.6251 10.6186 10.7945L8.95832 10.6093C8.51422 10.9738 8.00165 11.2578 7.44284 11.4393M4.5573 2.55985L5.33318 1.0365C5.55207 1.0123 5.77451 0.999878 5.99985 0.999878C6.22519 0.999878 6.44763 1.0123 6.66652 1.0365L7.4424 2.55985C7.992 2.73799 8.49244 3.01164 8.93157 3.36706L10.6182 3.17762C10.7589 3.34704 10.8917 3.5259 11.0157 3.71403C11.1398 3.90215 11.2518 4.09469 11.3521 4.29075L10.506 5.77966M10.5061 5.78199C10.6108 6.17028 10.6667 6.57861 10.6667 6.99999C10.6667 7.4142 10.6127 7.81581 10.5114 8.19817M7.44284 11.4393C7.44273 11.4394 7.44295 11.4393 7.44284 11.4393ZM7.44284 11.4393L6.66668 12.9632C6.44779 12.9874 6.22535 12.9999 6.00001 12.9999C5.77467 12.9999 5.55223 12.9874 5.33335 12.9632L4.55515 11.4387C3.99606 11.2568 3.48329 10.9722 3.03914 10.6072L1.36925 10.7942C1.22856 10.6248 1.09574 10.4459 0.971696 10.2578C0.847653 10.0697 0.735576 9.87715 0.635284 9.68109L1.48411 8.18746C1.38522 7.80933 1.33334 7.40912 1.33334 6.99999C1.33334 6.58314 1.38799 6.17906 1.49053 5.79451L0.635538 4.29055C0.73583 4.09449 0.847906 3.90195 0.971949 3.71382C1.09599 3.5257 1.22881 3.34683 1.3695 3.17741L3.07282 3.36873C3.51171 3.01371 4.0107 2.73776 4.55987 2.55977M7.44284 11.4393L7.44366 11.4377M8 6.99998C8 8.10455 7.10457 8.99998 6 8.99998C4.89543 8.99998 4 8.10455 4 6.99998C4 5.89541 4.89543 4.99998 6 4.99998C7.10457 4.99998 8 5.89541 8 6.99998Z" stroke="#8C8C8C" stroke-linecap="round" stroke-linejoin="round"/>
</svg>
