<svg width="13" height="14" viewBox="0 0 13 14" fill="none" xmlns="http://www.w3.org/2000/svg">
<path d="M1.33334 13C1.33334 10.649 3.07181 8.70408 5.33334 8.38059M8.66667 3.66667C8.66667 5.13943 7.47276 6.33333 6 6.33333C4.52724 6.33333 3.33334 5.13943 3.33334 3.66667C3.33334 2.19391 4.52724 1 6 1C7.47276 1 8.66667 2.19391 8.66667 3.66667ZM11.9151 9.13586C11.8696 9.1386 11.8238 9.13998 11.7778 9.13998C11.0948 9.13998 10.4718 8.83496 9.99999 8.33333C9.52821 8.83494 8.9052 9.13995 8.22222 9.13995C8.17617 9.13995 8.1304 9.13856 8.08492 9.13582C8.02949 9.39021 8 9.65699 8 9.93195C8 11.408 8.84985 12.6483 10 13C11.1502 12.6483 12 11.408 12 9.93195C12 9.657 11.9705 9.39023 11.9151 9.13586Z" stroke="#1A8AF6" stroke-linecap="round" stroke-linejoin="round"/>
</svg>
