<svg width="12" height="14" viewBox="0 0 12 14" fill="none" xmlns="http://www.w3.org/2000/svg">
<path d="M7.33333 11.8571L8.53333 13L11.3333 10.3333M8 9.16979C7.24411 8.64254 6.32483 8.33333 5.33333 8.33333C3.02753 8.33333 1.11231 10.0056 0.734361 12.2035C0.694991 12.4325 0.675305 12.547 0.721383 12.6724C0.757791 12.7715 0.849761 12.8807 0.941271 12.9333C1.05709 13 1.19361 13 1.46666 13H4.66666M8 3.66667C8 5.13943 6.80609 6.33333 5.33333 6.33333C3.86057 6.33333 2.66666 5.13943 2.66666 3.66667C2.66666 2.19391 3.86057 1 5.33333 1C6.80609 1 8 2.19391 8 3.66667Z" stroke="#8C8C8C" stroke-linecap="round" stroke-linejoin="round"/>
</svg>
