<svg width="14" height="12" viewBox="0 0 14 12" fill="none" xmlns="http://www.w3.org/2000/svg">
<path d="M7.66667 11.3333V10C7.66667 8.15906 6.17428 6.66667 4.33333 6.66667C2.49238 6.66667 1 8.15906 1 10V11.3333H7.66667ZM7.66667 11.3333H13V10.6667C13 8.70299 11.5076 7.33334 9.66667 7.33334C8.72445 7.33334 7.87354 7.75033 7.26729 8.42074M6.33333 2.66667C6.33333 3.77124 5.4379 4.66667 4.33333 4.66667C3.22876 4.66667 2.33333 3.77124 2.33333 2.66667C2.33333 1.5621 3.22876 0.666672 4.33333 0.666672C5.4379 0.666672 6.33333 1.5621 6.33333 2.66667ZM11 4C11 4.73638 10.403 5.33334 9.66667 5.33334C8.93029 5.33334 8.33333 4.73638 8.33333 4C8.33333 3.26363 8.93029 2.66667 9.66667 2.66667C10.403 2.66667 11 3.26363 11 4Z" stroke="#8C8C8C" stroke-linecap="round" stroke-linejoin="round"/>
</svg>
