<svg width="12" height="12" viewBox="0 0 12 12" fill="none" xmlns="http://www.w3.org/2000/svg">
<path d="M2.66667 3.33334H2.67333M9.33333 3.33334H9.34M4.66667 0.666672V11.3333M7.33333 0.666672V11.3333M0.666668 4.66667C0.755557 5.11112 1.09333 6 1.73333 6H10.2667C10.5333 6 11.12 5.73334 11.3333 4.66667M0.666668 7.33334C0.755557 7.77778 1.09333 8.66667 1.73333 8.66667H4.4M11.3333 7.33334C11.12 8.4 10.5333 8.66667 10.2667 8.66667H7.6M11.3333 3.86667V8.13334C11.3333 9.25344 11.3333 9.8135 11.1153 10.2413C10.9236 10.6176 10.6176 10.9236 10.2413 11.1154C9.81349 11.3333 9.25344 11.3333 8.13333 11.3333H3.86667C2.74656 11.3333 2.18651 11.3333 1.75869 11.1154C1.38236 10.9236 1.0764 10.6176 0.884655 10.2413C0.666668 9.8135 0.666668 9.25344 0.666668 8.13334V3.86667C0.666668 2.74657 0.666668 2.18651 0.884655 1.75869C1.0764 1.38237 1.38236 1.07641 1.75869 0.884659C2.18651 0.666672 2.74656 0.666672 3.86667 0.666672H8.13333C9.25344 0.666672 9.81349 0.666672 10.2413 0.884659C10.6176 1.07641 10.9236 1.38237 11.1153 1.75869C11.3333 2.18651 11.3333 2.74657 11.3333 3.86667Z" stroke="#8C8C8C" stroke-linecap="round" stroke-linejoin="round"/>
</svg>
