<svg width="13" height="14" viewBox="0 0 13 14" fill="none" xmlns="http://www.w3.org/2000/svg">
<path d="M4.66666 13H1.73333C1.35996 13 1.17328 13 1.03067 12.9273C0.905229 12.8634 0.803242 12.7614 0.739326 12.636C0.666664 12.4934 0.666664 12.3067 0.666664 11.9333V10.3333C0.666664 9.22876 1.56209 8.33333 2.66666 8.33333H3M3.12142 8.33333C3.75495 8.75457 4.51545 9 5.33328 9C5.56044 9 5.78318 8.98106 6 8.94469M8 3.66667C8 5.13943 6.80609 6.33333 5.33333 6.33333C3.86057 6.33333 2.66666 5.13943 2.66666 3.66667C2.66666 2.19391 3.86057 1 5.33333 1C6.80609 1 8 2.19391 8 3.66667ZM7.33333 13L8.68331 12.73C8.80102 12.7065 8.85987 12.6947 8.91476 12.6732C8.96347 12.6541 9.00977 12.6293 9.05269 12.5993C9.10104 12.5656 9.14348 12.5232 9.22837 12.4383L12 9.66667C12.3682 9.29848 12.3682 8.70152 12 8.33333C11.6318 7.96514 11.0349 7.96514 10.6667 8.33333L7.89503 11.105C7.81015 11.1898 7.76771 11.2323 7.73398 11.2806C7.70405 11.3236 7.67927 11.3699 7.66017 11.4186C7.63864 11.4735 7.62687 11.5323 7.60333 11.65L7.33333 13Z" stroke="#8C8C8C" stroke-linecap="round" stroke-linejoin="round"/>
</svg>
