<svg width="14" height="12" viewBox="0 0 14 12" fill="none" xmlns="http://www.w3.org/2000/svg">
<path d="M3.66667 7.33333H7.33333M3.66667 4.66666H10.3333M5.66667 10.6667H3.13333C2.3866 10.6667 2.01323 10.6667 1.72801 10.5213C1.47713 10.3935 1.27316 10.1895 1.14532 9.93865C1 9.65343 1 9.28007 1 8.53333V3.46666C1 2.71992 1 2.34656 1.14532 2.06134C1.27316 1.81046 1.47713 1.60648 1.72801 1.47865C2.01323 1.33333 2.3866 1.33333 3.13333 1.33333H10.8667C11.6134 1.33333 11.9868 1.33333 12.272 1.47865C12.5229 1.60648 12.7268 1.81046 12.8547 2.06134C13 2.34656 13 2.71992 13 3.46666V3.66666M8.33333 11.3333L9.68331 11.0633C9.80102 11.0398 9.85988 11.028 9.91476 11.0065C9.96347 10.9874 10.0098 10.9626 10.0527 10.9327C10.101 10.899 10.1435 10.8565 10.2284 10.7716L13 8C13.3682 7.63181 13.3682 7.03485 13 6.66666C12.6318 6.29847 12.0349 6.29847 11.6667 6.66666L8.89503 9.43829C8.81015 9.52318 8.76771 9.56562 8.73399 9.61397C8.70405 9.65689 8.67928 9.70319 8.66017 9.7519C8.63864 9.80678 8.62687 9.86564 8.60333 9.98335L8.33333 11.3333Z" stroke="#8C8C8C" stroke-linecap="round" stroke-linejoin="round"/>
</svg>
